<?xml version="1.0" standalone="no"?>
<!DOCTYPE svg PUBLIC "-//W3C//DTD SVG 1.1//EN" "http://www.w3.org/Graphics/SVG/1.1/DTD/svg11.dtd" >
<svg xmlns="http://www.w3.org/2000/svg" xmlns:xlink="http://www.w3.org/1999/xlink" version="1.1" viewBox="0 0 256 256">
  <g transform="matrix(1 0 0 -1 0 204)">
   <path fill="currentColor"
d="M66 133q-1 3 2 2q9 -9 7 -9q-3 -7 -2 -23q9 4 16 6q2 0 2 -1q1 -2 0 -3q-9 -5 -18 -11q-3 -31 -2 -39q3 3 9 8q10 9 18 17q6 5 2 -2l-4 -4q5 -1 18 2q1 0 3 1q7 2 18 5q11 2 19 5v1q1 3 2 3q8 0 12 -1q8 1 23 3q7 0 10 1q-1 3 3 4q4 3 7 2q2 0 5 -3h2q5 -3 11 -4
q3 -1 3 -2q0 -4 -2 -3q-5 -1 -10 1q-12 3 -21 2q-6 -2 -17 -3q-6 -1 -13 -2q-2 -4 -2 -8q-3 -12 -1 -34q1 -21 1 -49q-2 -6 0 -9q0 -2 -1 -3q-3 -1 -3 0q-9 3 -14 33q-1 2 2 1q0 -2 2 -5q4 -7 6 -8q4 -3 4 -1q0 41 -4 67q-2 13 -4 14q-9 -2 -24 -7q-6 -3 -15 -5
q-8 -5 -22 -1q-30 -33 -49 -46q-15 -11 -22 -7q-6 0 0 2q14 3 41 29q-1 3 -1 5q-1 7 -1 9l-1 1q0 3 3 4q1 0 2 15q0 3 1 8q-13 -8 -23 -8q-3 0 -3 1t3 2q8 4 20 11q2 2 4 3v22q0 6 -2 11zM142 189q-3 1 0 2q15 -4 26 -20q26 3 42 0q13 -2 17 -12l-2 -3h-4q-6 2 -24 -5
q-1 -1 -3 -2q-15 -6 -26 -8q-2 0 0 2q20 8 44 20q3 1 3 3q-1 1 -4 2q-7 1 -18 1q-9 0 -24 -1q1 -8 -4 -11q-3 -2 -4 -1q-8 3 -9 8q-3 -1 -13 -6l-6 -2q-7 -3 -11 -1q-3 0 0 1q16 7 30 12q-1 12 -10 21zM175 125h12q7 0 5 -3q0 -4 -4 -3q-7 0 -14 -3q-4 -2 -11 -5t-16 -5
q-6 -1 -9 -2q-12 -1 -16 1q-2 1 1 2q11 -3 48 14q-1 0 0 1q0 1 1 2t3 1zM191 62q-1 1 1 2q22 -8 38 -25q2 -2 0 -5q0 -5 -10 0q-3 1 -2 2q-8 12 -27 26zM86 162q3 -1 6 -1q4 -1 7 -1q3 -4 -1 -5q-8 2 -35 -9q-9 -4 -25 -3q-5 1 0 2q13 1 35 10q7 2 8 5q1 4 5 2zM113 154
q3 -20 9 -20q2 0 2 -3q-1 -6 -5 -5q-4 -1 -11 10q-3 1 -2 7q-1 2 1 2q4 4 5 8q0 2 1 1zM124 47q-1 -3 -1 -7q-2 -11 0 -15q0 -4 -2 -5q-2 -3 -4 -1q-5 3 -2 17q1 3 3 3q3 2 4 8q1 1 2 0z" />
  </g>

</svg>
