<?xml version="1.0" standalone="no"?>
<!DOCTYPE svg PUBLIC "-//W3C//DTD SVG 1.1//EN" "http://www.w3.org/Graphics/SVG/1.1/DTD/svg11.dtd" >
<svg xmlns="http://www.w3.org/2000/svg" xmlns:xlink="http://www.w3.org/1999/xlink" version="1.1" viewBox="0 0 256 256">
  <g transform="matrix(1 0 0 -1 0 204)">
   <path fill="currentColor"
d="M94 185q12 -9 16 -14q4 1 13 3q12 3 25 7q16 21 11 32q-1 2 0 2t4 -1q12 -9 8 -14q-2 -3 -5 -9q-2 -3 -3 -6q13 3 17 6q3 2 7 2q9 -2 15 -3q2 -1 1 -4q0 -2 -2 -1q-9 1 -17 -1l-9 -3q-11 -2 -16 -3q-16 -18 -28 -25q1 -3 1 -9q5 0 11 1q9 2 12 2q7 1 10 0q0 -2 5 -5
q4 -3 5 -4q1 -2 1 -4q-1 -2 -3 -1q-6 -1 -9 -5q38 5 42 8q4 2 8 1q7 -3 15 -5q1 -1 1 -2q-1 -4 -11 -3q-11 1 -35 -8q-7 -2 -2 2q9 3 14 6q4 3 -1 2q-18 -4 -34 -5q-14 -16 -34 -23v-4q16 4 15 8q0 1 2 2l18 -2q2 0 2 -1q0 -2 -9 -4q-10 -2 -29 -10q0 -33 -1 -40q9 1 15 3
q0 4 6 4q1 -1 2 -1h6q2 -1 1 -3q0 -2 -2 -2q-7 0 -28 -5q-2 -17 -2 -28q0 -12 1 -18q-1 -16 4 -26q2 -2 -2 -4q-5 -2 -6 4q-4 11 -4 19q0 2 2 4q1 1 2 1v26v21q-6 -2 -16 -5q-6 -2 -8 -2q-3 -2 -3 -1l1 5l1 1q1 0 2 1q2 -1 6 0q2 0 3 1q7 1 15 5v13t1 26q-12 -5 -9 -1
q2 1 -2 1q-10 -3 -24 -4q-4 0 -1 2q15 1 36 9q1 2 1 4q-3 -1 -6 -1h-1q-3 1 0 2q1 -1 3 1q2 1 4 1v7t1 8q-29 -5 -60 -14q-15 -6 -27 -1q-4 0 0 1q6 -1 18 2l4 2q22 5 58 13q4 1 7 2q-1 6 1 13q-2 -1 -5 -1q-13 -3 -18 -1q-3 0 1 2q4 0 12 3q6 2 10 3v8q-3 -2 -6 -3
q-6 -3 -2 1q1 1 4 3q2 1 4 3q0 1 -2 3v2q-1 2 1 1l2 -2t3 -1q5 5 15 18q-8 -3 -31 -10q2 -3 4 -8q1 -8 -8 -4q-3 0 -6 8v1q-16 -4 -28 0q-2 1 2 2h3q6 1 21 5q-2 7 -8 15q-1 2 1 1zM142 -6q-4 10 -1 13q2 3 1 21q0 7 -4 11q-4 2 1 1q1 0 3 -1q2 0 7 1q3 1 5 1q1 1 7 3h3
q4 1 7 1h1q-1 5 -1 12q-1 7 -1 13q-23 -3 -30 -7q-1 -1 -3 -1q-2 -2 -4 4q-1 1 4 2q0 1 2 3q1 1 2 3q7 10 2 16q-2 3 1 2t6 -5q3 -5 -1 -8q-1 -2 -3 -3q-3 -4 -4 -7h3l12 2q-1 3 4 3h9v19q0 5 -3 10q-2 2 1 1q8 -5 11 -9q3 -3 1 -5q-1 -1 -1 -2q-3 -4 -3 -14q1 0 1 -1t-1 -2
q-1 -21 2 -57q0 -7 1 -10q2 -14 9 -25l1 -1q4 -5 5 -9q1 -2 -3 -4q-4 -1 -7 8q-11 17 -18 21q-2 2 -1 6q1 2 7 0h3t1 1q-3 22 -4 36v4h-1l-8 -2q-5 -1 -8 -1q-4 -2 -7 -2q3 -1 0 -6q-2 -3 -3 -15q0 -14 2 -20q-2 -2 -5 -1zM98 26q-11 -3 -18 -2q-4 -42 -34 -54q-8 -2 -2 2
q33 14 33 80q2 20 -5 25q0 1 2 1q12 -8 10 -9q-3 -7 -2 -14q3 -1 18 5q3 12 3 14q0 4 -2 7q-3 2 0 1q0 -1 1 -1q3 -1 6 -3q4 -2 0 -7q-2 -2 -3 -7l-1 -3h3h6q2 -2 2 -3q-13 -2 -27 -6q-2 -1 -3 -1q-3 -1 -4 0q0 -5 -1 -13v-11q6 0 19 3q2 3 5 3q8 -4 5 -7q-3 -2 -3 -4
q-2 -12 -2 -20q0 -9 -1 -14q-1 -2 -2 -1q-4 5 -5 9q-2 4 2 4q3 0 3 21q0 6 -3 5zM161 138q0 3 -1 4q0 1 -4 1q-11 -1 -25 -5q-1 -4 -1 -7q-1 -4 -1 -7q11 1 26 3q4 6 6 11zM152 123q-12 -2 -23 -4q0 -2 -1 -6v-7q13 5 24 17z" />
  </g>

</svg>
