<svg version="1.1" baseProfile="full" xmlns="http://www.w3.org/2000/svg" width="512" height="512" viewBox="0,0,512,512">

  <rect width="512" height="512" stroke="red" fill="white"></rect>

  <text x="2" y="12" font-size="12" text-anchor="start" fill="red">0</text>
  <path d="M256  64 H0 H512" stroke="lightgray" fill="white"></path>
  <text x="2" y="64" font-size="12" text-anchor="start" fill="red">64</text>
  <path d="M256 128 H0 H512" stroke="lightgray" fill="white"></path>
  <text x="2" y="128" font-size="12" text-anchor="start" fill="red">128</text>
  <path d="M256 192 H0 H512" stroke="lightgray" fill="white"></path>
  <text x="2" y="192" font-size="12" text-anchor="start" fill="red">192</text>
  <path d="M256 256 H0 H512" stroke="lightgray" fill="white"></path>
  <text x="2" y="256" font-size="12" text-anchor="start" fill="red">256</text>
  <path d="M256 320 H0 H512" stroke="lightgray" fill="white"></path>
  <text x="2" y="320" font-size="12" text-anchor="start" fill="red">320</text>
  <path d="M256 384 H0 H512" stroke="lightgray" fill="white"></path>
  <text x="2" y="384" font-size="12" text-anchor="start" fill="red">384</text>
  <path d="M256 448 H0 H512" stroke="lightgray" fill="white"></path>
  <text x="2" y="448" font-size="12" text-anchor="start" fill="red">448</text>
  <text x="2" y="512" font-size="12" text-anchor="start" fill="red">512</text>

  <path d="M64  0 V512" stroke="lightgray" fill="white"></path>
  <text x="64" y="12" font-size="12" text-anchor="start" fill="red">64</text>
  <path d="M128  0 V512" stroke="lightgray" fill="white"></path>
  <text x="128" y="12" font-size="12" text-anchor="start" fill="red">128</text>
  <path d="M195  0 V512" stroke="lightgray" fill="white"></path>
  <text x="192" y="12" font-size="12" text-anchor="start" fill="red">192</text>
  <path d="M256  0 V512" stroke="lightgray" fill="white"></path>
  <text x="256" y="12" font-size="12" text-anchor="start" fill="red">256</text>
  <path d="M320  0 V512" stroke="lightgray" fill="white"></path>
  <text x="320" y="12" font-size="12" text-anchor="start" fill="red">320</text>
  <path d="M384  0 V512" stroke="lightgray" fill="white"></path>
  <text x="384" y="12" font-size="12" text-anchor="start" fill="red">384</text>
  <path d="M448  0 V512" stroke="lightgray" fill="white"></path>
  <text x="448" y="12" font-size="12" text-anchor="start" fill="red">448</text>
  <text x="512" y="12" font-size="12" text-anchor="start" fill="red">512</text>


  <path d="M256 256 V270 V242 M256 256 H270 H242" stroke="black" fill="white"></path>
  <text x="256" y="256" font-size="16" text-anchor="middle" fill="red">(256, 256)</text>

  <line x1="80" y1="256" x2="192" y2="260" style="stroke:black;stroke-width:2"/>

  <line x1="80" y1="280" x2="192" y2="280" style="stroke:black;stroke-width:2"/>

  <line x1="80" y1="304" x2="192" y2="300" style="stroke:black;stroke-width:2"/>

  <line x1="320" y1="256" x2="440" y2="252" style="stroke:black;stroke-width:2"/>

  <line x1="320" y1="280" x2="440" y2="280" style="stroke:black;stroke-width:2"/>

  <line x1="320" y1="304" x2="440" y2="308" style="stroke:black;stroke-width:2"/>

  <rect x="140" y="170" rx="10" ry="10" width="75" height="75" stroke="black" stroke-width="2" fill="white"></rect>

  <rect x="305" y="170" rx="10" ry="10" width="75" height="75" stroke="black" stroke-width="2" fill="white"></rect>

  <ellipse fill="white" stroke="black" stroke-width="5" cx="160" cy="220" rx="120" ry="100" transform="translate(100,50)"></ellipse>



  <defs>
    <path id="a1" d="M0 50 C150 150 100 -50 300 50" stroke="#000" fill="none" transform="translate(175,384)"></path>
  </defs>
  <text>
     <textpath href="#a1">這是中風的Kitty，很酷吧
    </textpath>
  </text>
</svg>